# Blender 3.4.0
# www.blender.org
mtllib barrel_k2.mtl
o barrel
v 0.000000 1.026415 -0.275529
v -0.194829 1.026415 -0.194829
v 0.000000 1.229143 -0.336011
v -0.237596 1.229143 -0.237596
v 0.237596 1.229143 -0.237596
v 0.336012 1.229143 0.000000
v 0.194829 1.026415 -0.194829
v 0.275530 1.026415 0.000000
v -0.194829 1.026415 0.194829
v 0.000000 1.026415 0.275530
v -0.237596 1.229143 0.237596
v 0.000000 1.229143 0.336012
v 0.000000 -0.000000 0.503747
v -0.356203 -0.000000 0.356203
v 0.000000 0.358500 0.629684
v -0.445254 0.358500 0.445254
v 0.237596 1.229143 0.237596
v 0.194829 1.026415 0.194829
v 0.503747 1.229143 0.000000
v 0.629684 0.870643 0.000000
v 0.356203 1.229143 0.356203
v 0.445254 0.870643 0.445254
v -0.336012 1.229143 0.000000
v -0.275530 1.026415 0.000000
v 0.445254 0.870643 -0.445253
v 0.356203 1.229143 -0.356203
v 0.445254 0.358500 -0.445254
v 0.629684 0.358500 0.000000
v -0.445254 0.358500 -0.445254
v -0.445254 0.870643 -0.445253
v -0.629684 0.358500 0.000000
v -0.629684 0.870643 0.000000
v -0.356203 0.000000 -0.356203
v 0.000000 0.000000 -0.503747
v 0.000000 0.358500 -0.629684
v -0.445254 0.870643 0.445254
v 0.000000 0.870643 -0.629684
v 0.000000 1.229143 -0.503747
v 0.000000 0.870643 0.629684
v 0.000000 1.229143 0.503747
v -0.503747 1.229143 0.000000
v -0.356203 1.229143 0.356203
v -0.356203 1.229143 -0.356203
v 0.356203 -0.000000 0.356203
v 0.445254 0.358500 0.445254
v 0.356203 0.000000 -0.356203
v -0.503747 0.000000 0.000000
v 0.503747 0.000000 0.000000
v -0.472382 0.738510 -0.472382
v 0.000000 0.738510 -0.668049
v -0.472382 0.986387 -0.472382
v 0.000000 0.986387 -0.668049
v 0.472382 0.738510 -0.472382
v 0.472382 0.986387 -0.472382
v -0.668049 0.738510 0.000000
v -0.668049 0.986387 0.000000
v -0.472382 0.738510 0.472382
v -0.472382 0.986387 0.472382
v 0.668049 0.242756 0.000000
v 0.472382 0.242756 -0.472382
v 0.472382 0.242756 0.472382
v 0.000000 0.242756 0.668049
v 0.000000 0.242756 -0.668049
v -0.472382 0.242756 0.472382
v -0.472382 0.242756 -0.472382
v -0.668049 0.242756 0.000000
v 0.472382 0.738510 0.472382
v 0.000000 0.738510 0.668049
v 0.472382 0.986387 0.472382
v 0.000000 0.986387 0.668049
v 0.668049 0.490633 0.000000
v 0.472382 0.490633 0.472382
v 0.472382 0.490633 -0.472382
v 0.000000 0.490633 -0.668049
v 0.000000 0.490633 0.668049
v -0.472382 0.490633 -0.472382
v -0.472382 0.490633 0.472382
v -0.668049 0.490633 0.000000
v 0.668049 0.738510 0.000000
v 0.668049 0.986387 0.000000
vn -0.0000 0.2859 0.9583
vn 0.6776 0.2859 0.6776
vn -0.6776 0.2859 0.6776
vn -0.9583 0.2859 -0.0000
vn 0.6776 0.2859 -0.6776
vn -0.0000 0.2859 -0.9583
vn -0.3784 -0.1497 0.9135
vn -0.3640 -0.3087 0.8788
vn -0.6776 0.2859 -0.6776
vn 0.8788 0.3087 0.3640
vn 0.9135 0.1497 0.3784
vn 0.9583 0.2859 -0.0000
vn -0.0000 1.0000 -0.0000
vn 0.8788 0.3087 -0.3640
vn 0.9135 0.1497 -0.3784
vn 0.9135 -0.1497 -0.3784
vn -0.9135 -0.1497 -0.3784
vn -0.9135 0.1497 -0.3784
vn -0.3784 -0.1497 -0.9135
vn -0.3640 -0.3087 -0.8788
vn -0.9135 -0.1497 0.3784
vn -0.9135 0.1497 0.3784
vn 0.3640 0.3087 -0.8788
vn 0.3784 0.1497 -0.9135
vn 0.3640 0.3087 0.8788
vn 0.3784 0.1497 0.9135
vn -0.8788 0.3087 0.3640
vn -0.3640 0.3087 -0.8788
vn -0.3784 0.1497 -0.9135
vn 0.3784 -0.1497 -0.9135
vn 0.3784 -0.1497 0.9135
vn 0.3640 -0.3087 0.8788
vn 0.3640 -0.3087 -0.8788
vn -0.3640 0.3087 0.8788
vn -0.3784 0.1497 0.9135
vn -0.8788 -0.3087 0.3640
vn 0.9135 -0.1497 0.3784
vn 0.8788 -0.3087 0.3640
vn -0.0000 -1.0000 -0.0000
vn -0.8788 0.3087 -0.3640
vn 0.8788 -0.3087 -0.3640
vn -0.8788 -0.3087 -0.3640
vn -0.7071 -0.0000 -0.7071
vn -0.0000 -0.0000 -1.0000
vn 0.7071 -0.0000 -0.7071
vn -0.0000 -0.0002 -1.0000
vn -0.7071 -0.0000 0.7071
vn -1.0000 -0.0000 -0.0000
vn -1.0000 0.0001 -0.0000
vn -0.7071 -0.0001 0.7071
vn -0.7071 0.0001 -0.7071
vn -1.0000 -0.0001 -0.0000
vn 0.7071 -0.0000 0.7071
vn -0.0000 -0.0000 1.0000
vn 0.7071 -0.0002 0.7071
vn 1.0000 -0.0000 -0.0000
vn 0.7071 0.0001 0.7071
vn 0.7071 -0.0001 -0.7071
vn -0.7071 -0.0002 -0.7071
vn 1.0000 -0.0001 -0.0000
vn 1.0000 0.0001 -0.0000
s 0
usemtl colormap
f 3//1 2//2 1//1
f 2//2 3//1 4//2
f 7//3 6//4 5//3
f 6//4 7//3 8//4
f 11//5 10//6 9//5
f 10//6 11//5 12//6
f 15//7 14//8 13//8
f 14//8 15//7 16//7
f 8//4 17//9 6//4
f 17//9 8//4 18//9
f 21//10 20//11 19//10
f 20//11 21//10 22//11
f 11//5 24//12 23//12
f 24//12 11//5 9//5
f 7//13 18//13 8//13
f 18//13 7//13 1//13
f 18//13 1//13 10//13
f 10//13 1//13 2//13
f 10//13 2//13 9//13
f 9//13 2//13 24//13
f 26//14 20//15 25//15
f 20//15 26//14 19//14
f 20//15 27//16 25//15
f 27//16 20//15 28//16
f 31//17 30//18 29//17
f 30//18 31//17 32//18
f 29//19 34//20 33//20
f 34//20 29//19 35//19
f 16//21 32//22 31//21
f 32//22 16//21 36//22
f 38//23 25//24 37//24
f 25//24 38//23 26//23
f 21//25 39//26 22//26
f 39//26 21//25 40//25
f 36//22 41//27 32//22
f 41//27 36//22 42//27
f 43//28 37//29 30//29
f 37//29 43//28 38//28
f 37//24 27//30 35//30
f 27//30 37//24 25//24
f 23//12 2//2 4//2
f 2//2 23//12 24//12
f 45//31 13//32 44//32
f 13//32 45//31 15//31
f 35//30 46//33 34//33
f 46//33 35//30 27//30
f 26//13 21//13 19//13
f 21//13 26//13 6//13
f 6//13 26//13 5//13
f 17//13 21//13 6//13
f 5//13 26//13 38//13
f 5//13 38//13 3//13
f 21//13 17//13 40//13
f 40//13 17//13 12//13
f 40//13 12//13 11//13
f 3//13 38//13 43//13
f 40//13 11//13 42//13
f 3//13 43//13 4//13
f 42//13 11//13 23//13
f 4//13 43//13 23//13
f 42//13 23//13 43//13
f 42//13 43//13 41//13
f 12//6 18//9 10//6
f 18//9 12//6 17//9
f 40//34 36//35 39//35
f 36//35 40//34 42//34
f 30//29 35//19 29//19
f 35//19 30//29 37//29
f 14//36 31//21 47//36
f 31//21 14//36 16//21
f 45//37 48//38 28//37
f 48//38 45//37 44//38
f 39//35 16//7 15//7
f 16//7 39//35 36//35
f 44//39 46//39 48//39
f 46//39 44//39 13//39
f 46//39 13//39 34//39
f 34//39 13//39 14//39
f 34//39 14//39 33//39
f 33//39 14//39 47//39
f 32//18 43//40 30//18
f 43//40 32//18 41//40
f 28//16 46//41 27//16
f 46//41 28//16 48//41
f 33//42 31//17 29//17
f 31//17 33//42 47//42
f 22//11 28//37 20//11
f 28//37 22//11 45//37
f 22//26 15//31 45//31
f 15//31 22//26 39//26
f 5//3 1//1 7//3
f 1//1 5//3 3//1
f 51//43 50//44 49//43
f 50//44 51//43 52//44
f 52//44 53//45 50//44
f 53//45 52//46 54//45
f 57//47 56//48 55//49
f 56//48 57//47 58//50
f 61//39 60//39 59//39
f 60//39 61//39 62//39
f 60//39 62//39 63//39
f 63//39 62//39 64//39
f 63//39 64//39 65//39
f 65//39 64//39 66//39
f 55//48 51//43 49//51
f 51//43 55//48 56//52
f 69//53 68//54 67//53
f 68//54 69//53 70//54
f 73//13 72//13 71//13
f 72//13 73//13 74//13
f 72//13 74//13 75//13
f 75//13 74//13 76//13
f 75//13 76//13 77//13
f 77//13 76//13 78//13
f 70//54 57//47 68//54
f 57//47 70//54 58//47
f 64//47 78//48 66//48
f 78//48 64//47 77//50
f 72//53 62//54 61//53
f 62//54 72//55 75//54
f 75//54 64//47 62//54
f 64//47 75//54 77//47
f 59//56 72//53 61//57
f 72//53 59//56 71//56
f 60//45 71//56 59//56
f 71//56 60//45 73//58
f 66//48 76//43 65//51
f 76//43 66//48 78//48
f 76//43 63//44 65//43
f 63//44 76//59 74//44
f 74//44 60//45 63//44
f 60//45 74//44 73//45
f 79//56 69//53 67//57
f 69//53 79//56 80//60
f 53//45 80//56 79//61
f 80//56 53//45 54//58
f 54//13 69//13 80//13
f 69//13 54//13 52//13
f 69//13 52//13 70//13
f 70//13 52//13 51//13
f 70//13 51//13 58//13
f 58//13 51//13 56//13
f 67//39 53//39 79//39
f 53//39 67//39 68//39
f 53//39 68//39 50//39
f 50//39 68//39 57//39
f 50//39 57//39 49//39
f 49//39 57//39 55//39
f 3//1 2//2 1//1
f 2//2 3//1 4//2
f 7//3 6//4 5//3
f 6//4 7//3 8//4
f 11//5 10//6 9//5
f 10//6 11//5 12//6
f 15//7 14//8 13//8
f 14//8 15//7 16//7
f 8//4 17//9 6//4
f 17//9 8//4 18//9
f 21//10 20//11 19//10
f 20//11 21//10 22//11
f 11//5 24//12 23//12
f 24//12 11//5 9//5
f 7//13 18//13 8//13
f 18//13 7//13 1//13
f 18//13 1//13 10//13
f 10//13 1//13 2//13
f 10//13 2//13 9//13
f 9//13 2//13 24//13
f 26//14 20//15 25//15
f 20//15 26//14 19//14
f 20//15 27//16 25//15
f 27//16 20//15 28//16
f 31//17 30//18 29//17
f 30//18 31//17 32//18
f 29//19 34//20 33//20
f 34//20 29//19 35//19
f 16//21 32//22 31//21
f 32//22 16//21 36//22
f 38//23 25//24 37//24
f 25//24 38//23 26//23
f 21//25 39//26 22//26
f 39//26 21//25 40//25
f 36//22 41//27 32//22
f 41//27 36//22 42//27
f 43//28 37//29 30//29
f 37//29 43//28 38//28
f 37//24 27//30 35//30
f 27//30 37//24 25//24
f 23//12 2//2 4//2
f 2//2 23//12 24//12
f 45//31 13//32 44//32
f 13//32 45//31 15//31
f 35//30 46//33 34//33
f 46//33 35//30 27//30
f 26//13 21//13 19//13
f 21//13 26//13 6//13
f 6//13 26//13 5//13
f 17//13 21//13 6//13
f 5//13 26//13 38//13
f 5//13 38//13 3//13
f 21//13 17//13 40//13
f 40//13 17//13 12//13
f 40//13 12//13 11//13
f 3//13 38//13 43//13
f 40//13 11//13 42//13
f 3//13 43//13 4//13
f 42//13 11//13 23//13
f 4//13 43//13 23//13
f 42//13 23//13 43//13
f 42//13 43//13 41//13
f 12//6 18//9 10//6
f 18//9 12//6 17//9
f 40//34 36//35 39//35
f 36//35 40//34 42//34
f 30//29 35//19 29//19
f 35//19 30//29 37//29
f 14//36 31//21 47//36
f 31//21 14//36 16//21
f 45//37 48//38 28//37
f 48//38 45//37 44//38
f 39//35 16//7 15//7
f 16//7 39//35 36//35
f 44//39 46//39 48//39
f 46//39 44//39 13//39
f 46//39 13//39 34//39
f 34//39 13//39 14//39
f 34//39 14//39 33//39
f 33//39 14//39 47//39
f 32//18 43//40 30//18
f 43//40 32//18 41//40
f 28//16 46//41 27//16
f 46//41 28//16 48//41
f 33//42 31//17 29//17
f 31//17 33//42 47//42
f 22//11 28//37 20//11
f 28//37 22//11 45//37
f 22//26 15//31 45//31
f 15//31 22//26 39//26
f 5//3 1//1 7//3
f 1//1 5//3 3//1
f 51//43 50//44 49//43
f 50//44 51//43 52//44
f 52//44 53//45 50//44
f 53//45 52//46 54//45
f 57//47 56//48 55//49
f 56//48 57//47 58//50
f 61//39 60//39 59//39
f 60//39 61//39 62//39
f 60//39 62//39 63//39
f 63//39 62//39 64//39
f 63//39 64//39 65//39
f 65//39 64//39 66//39
f 55//48 51//43 49//51
f 51//43 55//48 56//52
f 69//53 68//54 67//53
f 68//54 69//53 70//54
f 73//13 72//13 71//13
f 72//13 73//13 74//13
f 72//13 74//13 75//13
f 75//13 74//13 76//13
f 75//13 76//13 77//13
f 77//13 76//13 78//13
f 70//54 57//47 68//54
f 57//47 70//54 58//47
f 64//47 78//48 66//48
f 78//48 64//47 77//50
f 72//53 62//54 61//53
f 62//54 72//55 75//54
f 75//54 64//47 62//54
f 64//47 75//54 77//47
f 59//56 72//53 61//57
f 72//53 59//56 71//56
f 60//45 71//56 59//56
f 71//56 60//45 73//58
f 66//48 76//43 65//51
f 76//43 66//48 78//48
f 76//43 63//44 65//43
f 63//44 76//59 74//44
f 74//44 60//45 63//44
f 60//45 74//44 73//45
f 79//56 69//53 67//57
f 69//53 79//56 80//60
f 53//45 80//56 79//61
f 80//56 53//45 54//58
f 54//13 69//13 80//13
f 69//13 54//13 52//13
f 69//13 52//13 70//13
f 70//13 52//13 51//13
f 70//13 51//13 58//13
f 58//13 51//13 56//13
f 67//39 53//39 79//39
f 53//39 67//39 68//39
f 53//39 68//39 50//39
f 50//39 68//39 57//39
f 50//39 57//39 49//39
f 49//39 57//39 55//39
