# Blender 4.1.1
# www.blender.org
mtllib barrelwide_k2.mtl
o barrel
v 0.000000 2.687666 -0.275529
v -0.194829 2.687666 -0.194829
v 0.000000 3.218509 -0.336011
v -0.237596 3.218509 -0.237596
v 0.237596 3.218509 -0.237596
v 0.336012 3.218509 -0.000000
v 0.194829 2.687666 -0.194829
v 0.275530 2.687666 -0.000000
v -0.194829 2.687666 0.194829
v 0.000000 2.687666 0.275530
v -0.237596 3.218509 0.237596
v 0.000000 3.218509 0.336012
v 0.000000 0.000000 0.503747
v -0.356203 0.000000 0.356203
v 0.000000 0.938732 0.629684
v -0.445254 0.938732 0.445254
v 0.237596 3.218509 0.237596
v 0.194829 2.687666 0.194829
v 0.503747 3.218509 -0.000000
v 0.629684 2.279778 -0.000000
v 0.356203 3.218509 0.356203
v 0.445254 2.279778 0.445254
v -0.336012 3.218509 -0.000000
v -0.275530 2.687666 -0.000000
v 0.445254 2.279778 -0.445253
v 0.356203 3.218509 -0.356203
v 0.445254 0.938732 -0.445254
v 0.629684 0.938732 -0.000000
v -0.445254 0.938732 -0.445254
v -0.445254 2.279778 -0.445253
v -0.629684 0.938732 -0.000000
v -0.629684 2.279778 -0.000000
v -0.356203 -0.000000 -0.356203
v 0.000000 -0.000000 -0.503747
v 0.000000 0.938732 -0.629684
v -0.445254 2.279778 0.445254
v 0.000000 2.279778 -0.629684
v 0.000000 3.218509 -0.503747
v 0.000000 2.279778 0.629684
v 0.000000 3.218509 0.503747
v -0.503747 3.218509 -0.000000
v -0.356203 3.218509 0.356203
v -0.356203 3.218509 -0.356203
v 0.356203 0.000000 0.356203
v 0.445254 0.938732 0.445254
v 0.356203 -0.000000 -0.356203
v -0.503747 0.000000 0.000000
v 0.503747 0.000000 0.000000
v -0.472382 1.933787 -0.472382
v 0.000000 1.933787 -0.668049
v -0.472382 2.582853 -0.472382
v 0.000000 2.582853 -0.668049
v 0.472382 1.933787 -0.472382
v 0.472382 2.582853 -0.472382
v -0.668049 1.933787 -0.000000
v -0.668049 2.582853 -0.000000
v -0.472382 1.933787 0.472382
v -0.472382 2.582853 0.472382
v 0.668049 0.635656 -0.000000
v 0.472382 0.635656 -0.472382
v 0.472382 0.635656 0.472382
v 0.000000 0.635656 0.668049
v 0.000000 0.635656 -0.668049
v -0.472382 0.635656 0.472382
v -0.472382 0.635656 -0.472382
v -0.668049 0.635656 -0.000000
v 0.472382 1.933787 0.472382
v 0.000000 1.933787 0.668049
v 0.472382 2.582853 0.472382
v 0.000000 2.582853 0.668049
v 0.668049 1.284722 -0.000000
v 0.472382 1.284722 0.472382
v 0.472382 1.284722 -0.472382
v 0.000000 1.284722 -0.668049
v 0.000000 1.284722 0.668049
v -0.472382 1.284722 -0.472382
v -0.472382 1.284722 0.472382
v -0.668049 1.284722 -0.000000
v 0.668049 1.933787 -0.000000
v 0.668049 2.582853 -0.000000
vn -0.0000 0.1132 0.9936
vn 0.7025 0.1132 0.7026
vn 0.0001 0.1132 0.9936
vn -0.7026 0.1132 0.7025
vn -0.9936 0.1132 0.0001
vn 0.7025 0.1132 -0.7026
vn 0.0001 0.1132 -0.9936
vn -0.3821 -0.0577 0.9223
vn -0.3798 -0.1230 0.9169
vn -0.9936 0.1132 -0.0001
vn -0.7026 0.1132 -0.7025
vn 0.9169 0.1230 0.3798
vn 0.9223 0.0577 0.3821
vn 0.7026 0.1132 -0.7025
vn 0.9936 0.1132 -0.0001
vn -0.0000 1.0000 -0.0000
vn 0.9169 0.1230 -0.3798
vn 0.9223 0.0577 -0.3821
vn 0.9223 -0.0577 -0.3821
vn 0.9223 -0.0577 -0.3820
vn 0.9223 0.0577 -0.3820
vn -0.9223 -0.0577 -0.3821
vn -0.9223 0.0577 -0.3821
vn -0.9223 0.0577 -0.3820
vn -0.9223 -0.0577 -0.3820
vn -0.3821 -0.0577 -0.9223
vn -0.3798 -0.1230 -0.9169
vn -0.3820 -0.0577 -0.9223
vn -0.9223 -0.0577 0.3820
vn -0.9223 0.0577 0.3820
vn -0.9223 -0.0577 0.3821
vn -0.9223 0.0577 0.3821
vn 0.3798 0.1230 -0.9169
vn 0.3821 0.0577 -0.9223
vn 0.3820 0.0577 -0.9223
vn 0.3798 0.1230 0.9169
vn 0.3821 0.0577 0.9223
vn -0.9169 0.1230 0.3798
vn -0.3798 0.1230 -0.9169
vn -0.3821 0.0577 -0.9223
vn 0.3821 -0.0577 -0.9223
vn 0.3820 -0.0577 -0.9223
vn 0.9936 0.1132 0.0001
vn 0.7026 0.1132 0.7025
vn 0.3821 -0.0577 0.9223
vn 0.3798 -0.1230 0.9169
vn 0.3820 -0.0577 0.9223
vn 0.3798 -0.1230 -0.9169
vn -0.0001 0.1132 -0.9936
vn -0.7025 0.1132 -0.7026
vn -0.3798 0.1230 0.9169
vn -0.3821 0.0577 0.9223
vn -0.3820 0.0577 0.9223
vn -0.3820 0.0577 -0.9223
vn -0.9169 -0.1230 0.3798
vn 0.9223 -0.0577 0.3820
vn 0.9169 -0.1230 0.3798
vn 0.9223 -0.0577 0.3821
vn -0.3820 -0.0577 0.9223
vn -0.0000 -1.0000 -0.0000
vn -0.9169 0.1230 -0.3798
vn 0.9169 -0.1230 -0.3798
vn -0.9169 -0.1230 -0.3798
vn 0.9223 0.0577 0.3820
vn 0.3820 0.0577 0.9223
vn -0.7025 0.1132 0.7026
vn -0.0001 0.1132 0.9936
vn -0.7071 -0.0000 -0.7071
vn -0.0000 -0.0000 -1.0000
vn 0.7071 -0.0000 -0.7071
vn -0.0000 -0.0001 -1.0000
vn -0.7071 -0.0000 0.7071
vn -1.0000 -0.0000 -0.0000
vn 0.7071 -0.0000 0.7071
vn -0.0000 -0.0000 1.0000
vn 0.7071 -0.0001 0.7071
vn -0.7071 0.0001 0.7071
vn 1.0000 -0.0000 -0.0000
vn -0.7071 -0.0001 -0.7071
vn 0.7071 0.0001 -0.7071
s 0
usemtl colormap
f 3//1 2//2 1//1
f 2//2 3//3 4//2
f 7//4 6//5 5//4
f 6//5 7//4 8//5
f 11//6 10//7 9//6
f 10//7 11//6 12//7
f 15//8 14//9 13//9
f 14//9 15//8 16//8
f 8//10 17//11 6//10
f 17//11 8//10 18//11
f 21//12 20//13 19//12
f 20//13 21//12 22//13
f 11//14 24//15 23//15
f 24//15 11//14 9//14
f 7//16 18//16 8//16
f 18//16 7//16 1//16
f 18//16 1//16 10//16
f 10//16 1//16 2//16
f 10//16 2//16 9//16
f 9//16 2//16 24//16
f 26//17 20//18 25//18
f 20//18 26//17 19//17
f 20//18 27//19 25//18
f 27//20 20//21 28//19
f 31//22 30//23 29//22
f 30//24 31//25 32//23
f 29//26 34//27 33//27
f 34//27 29//26 35//28
f 16//29 32//30 31//31
f 32//32 16//31 36//32
f 38//33 25//34 37//35
f 25//34 38//33 26//33
f 21//36 39//37 22//37
f 39//37 21//36 40//36
f 36//30 41//38 32//32
f 41//38 36//32 42//38
f 43//39 37//40 30//40
f 37//40 43//39 38//39
f 37//34 27//41 35//41
f 27//42 37//35 25//35
f 23//43 2//44 4//44
f 2//44 23//43 24//43
f 45//45 13//46 44//46
f 13//46 45//45 15//47
f 35//41 46//48 34//48
f 46//48 35//41 27//41
f 26//16 21//16 19//16
f 21//16 26//16 6//16
f 6//16 26//16 5//16
f 17//16 21//16 6//16
f 5//16 26//16 38//16
f 5//16 38//16 3//16
f 21//16 17//16 40//16
f 40//16 17//16 12//16
f 40//16 12//16 11//16
f 3//16 38//16 43//16
f 40//16 11//16 42//16
f 3//16 43//16 4//16
f 42//16 11//16 23//16
f 4//16 43//16 23//16
f 42//16 23//16 43//16
f 42//16 43//16 41//16
f 12//49 18//50 10//49
f 18//50 12//49 17//50
f 40//51 36//52 39//53
f 36//52 40//51 42//51
f 30//54 35//26 29//28
f 35//26 30//40 37//40
f 14//55 31//31 47//55
f 31//31 14//55 16//31
f 45//56 48//57 28//58
f 48//57 45//58 44//57
f 39//52 16//8 15//8
f 16//59 39//52 36//53
f 44//60 46//60 48//60
f 46//60 44//60 13//60
f 46//60 13//60 34//60
f 34//60 13//60 14//60
f 34//60 14//60 33//60
f 33//60 14//60 47//60
f 32//23 43//61 30//23
f 43//61 32//23 41//61
f 28//19 46//62 27//19
f 46//62 28//19 48//62
f 33//63 31//22 29//22
f 31//22 33//63 47//63
f 22//64 28//56 20//13
f 28//58 22//13 45//58
f 22//65 15//45 45//47
f 15//45 22//37 39//37
f 5//66 1//1 7//66
f 1//67 5//66 3//67
f 51//68 50//69 49//68
f 50//69 51//68 52//69
f 52//69 53//70 50//69
f 53//70 52//71 54//70
f 57//72 56//73 55//73
f 56//73 57//72 58//72
f 61//60 60//60 59//60
f 60//60 61//60 62//60
f 60//60 62//60 63//60
f 63//60 62//60 64//60
f 63//60 64//60 65//60
f 65//60 64//60 66//60
f 55//73 51//68 49//68
f 51//68 55//73 56//73
f 69//74 68//75 67//74
f 68//75 69//74 70//75
f 73//16 72//16 71//16
f 72//16 73//16 74//16
f 72//16 74//16 75//16
f 75//16 74//16 76//16
f 75//16 76//16 77//16
f 77//16 76//16 78//16
f 70//75 57//72 68//75
f 57//72 70//75 58//72
f 64//72 78//73 66//73
f 78//73 64//72 77//72
f 72//74 62//75 61//74
f 62//75 72//76 75//75
f 75//75 64//77 62//75
f 64//72 75//75 77//72
f 59//78 72//74 61//74
f 72//74 59//78 71//78
f 60//70 71//78 59//78
f 71//78 60//70 73//70
f 66//73 76//68 65//68
f 76//68 66//73 78//73
f 76//68 63//69 65//68
f 63//69 76//79 74//69
f 74//69 60//80 63//69
f 60//70 74//69 73//70
f 79//78 69//74 67//74
f 69//74 79//78 80//78
f 53//70 80//78 79//78
f 80//78 53//70 54//70
f 54//16 69//16 80//16
f 69//16 54//16 52//16
f 69//16 52//16 70//16
f 70//16 52//16 51//16
f 70//16 51//16 58//16
f 58//16 51//16 56//16
f 67//60 53//60 79//60
f 53//60 67//60 68//60
f 53//60 68//60 50//60
f 50//60 68//60 57//60
f 50//60 57//60 49//60
f 49//60 57//60 55//60
f 3//1 2//2 1//1
f 2//2 3//3 4//2
f 7//4 6//5 5//4
f 6//5 7//4 8//5
f 11//6 10//7 9//6
f 10//7 11//6 12//7
f 15//8 14//9 13//9
f 14//9 15//8 16//8
f 8//10 17//11 6//10
f 17//11 8//10 18//11
f 21//12 20//13 19//12
f 20//13 21//12 22//13
f 11//14 24//15 23//15
f 24//15 11//14 9//14
f 7//16 18//16 8//16
f 18//16 7//16 1//16
f 18//16 1//16 10//16
f 10//16 1//16 2//16
f 10//16 2//16 9//16
f 9//16 2//16 24//16
f 26//17 20//18 25//18
f 20//18 26//17 19//17
f 20//18 27//19 25//18
f 27//20 20//21 28//19
f 31//22 30//23 29//22
f 30//24 31//25 32//23
f 29//26 34//27 33//27
f 34//27 29//26 35//28
f 16//29 32//30 31//31
f 32//32 16//31 36//32
f 38//33 25//34 37//35
f 25//34 38//33 26//33
f 21//36 39//37 22//37
f 39//37 21//36 40//36
f 36//30 41//38 32//32
f 41//38 36//32 42//38
f 43//39 37//40 30//40
f 37//40 43//39 38//39
f 37//34 27//41 35//41
f 27//42 37//35 25//35
f 23//43 2//44 4//44
f 2//44 23//43 24//43
f 45//45 13//46 44//46
f 13//46 45//45 15//47
f 35//41 46//48 34//48
f 46//48 35//41 27//41
f 26//16 21//16 19//16
f 21//16 26//16 6//16
f 6//16 26//16 5//16
f 17//16 21//16 6//16
f 5//16 26//16 38//16
f 5//16 38//16 3//16
f 21//16 17//16 40//16
f 40//16 17//16 12//16
f 40//16 12//16 11//16
f 3//16 38//16 43//16
f 40//16 11//16 42//16
f 3//16 43//16 4//16
f 42//16 11//16 23//16
f 4//16 43//16 23//16
f 42//16 23//16 43//16
f 42//16 43//16 41//16
f 12//49 18//50 10//49
f 18//50 12//49 17//50
f 40//51 36//52 39//53
f 36//52 40//51 42//51
f 30//54 35//26 29//28
f 35//26 30//40 37//40
f 14//55 31//31 47//55
f 31//31 14//55 16//31
f 45//56 48//57 28//58
f 48//57 45//58 44//57
f 39//52 16//8 15//8
f 16//59 39//52 36//53
f 44//60 46//60 48//60
f 46//60 44//60 13//60
f 46//60 13//60 34//60
f 34//60 13//60 14//60
f 34//60 14//60 33//60
f 33//60 14//60 47//60
f 32//23 43//61 30//23
f 43//61 32//23 41//61
f 28//19 46//62 27//19
f 46//62 28//19 48//62
f 33//63 31//22 29//22
f 31//22 33//63 47//63
f 22//64 28//56 20//13
f 28//58 22//13 45//58
f 22//65 15//45 45//47
f 15//45 22//37 39//37
f 5//66 1//1 7//66
f 1//67 5//66 3//67
f 51//68 50//69 49//68
f 50//69 51//68 52//69
f 52//69 53//70 50//69
f 53//70 52//71 54//70
f 57//72 56//73 55//73
f 56//73 57//72 58//72
f 61//60 60//60 59//60
f 60//60 61//60 62//60
f 60//60 62//60 63//60
f 63//60 62//60 64//60
f 63//60 64//60 65//60
f 65//60 64//60 66//60
f 55//73 51//68 49//68
f 51//68 55//73 56//73
f 69//74 68//75 67//74
f 68//75 69//74 70//75
f 73//16 72//16 71//16
f 72//16 73//16 74//16
f 72//16 74//16 75//16
f 75//16 74//16 76//16
f 75//16 76//16 77//16
f 77//16 76//16 78//16
f 70//75 57//72 68//75
f 57//72 70//75 58//72
f 64//72 78//73 66//73
f 78//73 64//72 77//72
f 72//74 62//75 61//74
f 62//75 72//76 75//75
f 75//75 64//77 62//75
f 64//72 75//75 77//72
f 59//78 72//74 61//74
f 72//74 59//78 71//78
f 60//70 71//78 59//78
f 71//78 60//70 73//70
f 66//73 76//68 65//68
f 76//68 66//73 78//73
f 76//68 63//69 65//68
f 63//69 76//79 74//69
f 74//69 60//80 63//69
f 60//70 74//69 73//70
f 79//78 69//74 67//74
f 69//74 79//78 80//78
f 53//70 80//78 79//78
f 80//78 53//70 54//70
f 54//16 69//16 80//16
f 69//16 54//16 52//16
f 69//16 52//16 70//16
f 70//16 52//16 51//16
f 70//16 51//16 58//16
f 58//16 51//16 56//16
f 67//60 53//60 79//60
f 53//60 67//60 68//60
f 53//60 68//60 50//60
f 50//60 68//60 57//60
f 50//60 57//60 49//60
f 49//60 57//60 55//60
