# Blender 4.2.2 LTS
# www.blender.org
o Mesh
v -1.136159 -0.547214 -0.343034
v -1.136159 -0.547214 0.321424
v -1.312928 -0.218802 0.321424
v -1.353826 0.413196 0.321424
v -1.136159 0.821798 0.321423
v -1.136159 0.821798 -0.343035
v -1.353826 0.413196 -0.343035
v -1.312928 -0.218803 -0.343034
v -0.372415 -1.194487 -0.343034
v -0.372415 -1.194487 0.321423
v -0.444971 -0.449628 0.641526
v -0.444971 0.276960 0.641526
v -0.372415 0.998130 0.321423
v -0.372415 0.998130 -0.343035
v -0.444971 0.276960 -0.663137
v -0.444971 -0.449628 -0.663136
v 0.391329 -1.194487 -0.343034
v 0.391329 -1.194487 0.321423
v 0.463885 -0.449628 0.641526
v 0.463885 0.276960 0.641526
v 0.391329 0.998130 0.321423
v 0.391329 0.998130 -0.343035
v 0.463885 0.276960 -0.663137
v 0.463885 -0.449628 -0.663136
v 1.155073 -0.547214 -0.343034
v 1.155073 -0.547214 0.321424
v 1.331842 -0.218802 0.321424
v 1.372740 0.413196 0.321424
v 1.155073 0.821798 0.321423
v 1.155073 0.821798 -0.343035
v 1.372740 0.413196 -0.343035
v 1.331842 -0.218803 -0.343034
v 0.009457 -1.349145 -0.343034
v 0.009457 -1.349145 0.321423
v 0.009457 -0.517746 0.651082
v 0.009457 0.196457 0.651083
v 0.009457 0.661413 0.484215
v 0.009457 0.661413 -0.505827
v 0.009457 0.196457 -0.672693
v 0.009457 -0.517747 -0.672693
v -0.754287 -0.936722 -0.343034
v -0.754287 -0.936722 0.321423
v -0.899398 -0.350548 0.553984
v -0.899398 0.382233 0.553984
v -0.834480 1.028318 0.321423
v -0.834480 1.028318 -0.343035
v -0.899398 0.382233 -0.575594
v -0.899398 -0.350548 -0.575594
v 0.773201 -0.936722 -0.343034
v 0.773201 -0.936722 0.321423
v 0.918312 -0.350548 0.553984
v 0.918312 0.382233 0.553984
v 0.853394 1.028318 0.321423
v 0.853394 1.028318 -0.343035
v 0.918312 0.382233 -0.575594
v 0.918312 -0.350548 -0.575594
v -1.229047 -0.584600 -0.010805
v -1.420148 -0.229562 -0.010805
v -1.464363 0.453680 -0.010806
v -1.229047 0.895411 -0.010806
v 1.439062 -0.229562 -0.010805
v 1.247961 -0.584600 -0.010805
v 1.483277 0.453680 -0.010806
v 1.247961 0.895411 -0.010806
v 0.009457 -1.451553 -0.010805
v -0.403378 -1.284356 -0.010805
v 0.422292 -1.284356 -0.010805
v -0.403378 1.093573 -0.010806
v 0.009457 0.722022 -0.010806
v 0.422292 1.093573 -0.010806
v -0.816212 -1.005692 -0.010805
v -0.902907 1.130729 -0.010806
v 0.835126 -1.005692 -0.010805
v 0.921822 1.130729 -0.010806
vn -0.0601 -0.3746 0.9252
vn -0.0905 -0.3592 0.9289
vn -0.1105 -0.3497 0.9303
vn 0.1639 -0.3557 0.9201
vn 0.1338 -0.3720 0.9185
vn 0.1819 -0.3458 0.9205
vn -0.0210 -0.0000 0.9998
vn 0.0210 -0.0000 0.9998
vn -0.0210 -0.0000 -0.9998
vn 0.0210 -0.0000 -0.9998
vn -0.1639 -0.3557 -0.9201
vn -0.1338 -0.3720 -0.9185
vn -0.1819 -0.3458 -0.9205
vn 0.0601 -0.3746 -0.9252
vn 0.0905 -0.3592 -0.9289
vn 0.1105 -0.3497 -0.9303
vn -0.2811 -0.4115 0.8670
vn -0.2764 -0.4145 0.8670
vn -0.2718 -0.4174 0.8671
vn -0.4518 -0.0032 0.8921
vn -0.4588 0.0030 0.8885
vn -0.4717 0.0141 0.8816
vn -0.1892 -0.0000 0.9819
vn -0.1138 0.3551 0.9279
vn -0.0844 0.3341 0.9388
vn -0.0432 0.3069 0.9508
vn 0.0385 0.3239 -0.9453
vn 0.0091 0.3464 -0.9380
vn 0.0749 0.2955 -0.9524
vn -0.4935 0.0030 -0.8698
vn -0.4866 -0.0032 -0.8736
vn -0.5056 0.0140 -0.8627
vn -0.1892 -0.0000 -0.9819
vn -0.2556 -0.4123 -0.8744
vn -0.2603 -0.4094 -0.8745
vn -0.2511 -0.4152 -0.8744
vn 0.2556 -0.4123 0.8744
vn 0.2603 -0.4094 0.8745
vn 0.2511 -0.4152 0.8744
vn 0.1892 -0.0000 0.9819
vn 0.4935 0.0030 0.8698
vn 0.4866 -0.0032 0.8736
vn 0.5056 0.0140 0.8627
vn -0.0385 0.3239 0.9453
vn -0.0091 0.3464 0.9380
vn -0.0749 0.2955 0.9524
vn 0.1138 0.3551 -0.9279
vn 0.0844 0.3341 -0.9388
vn 0.0432 0.3069 -0.9508
vn 0.1892 -0.0000 -0.9819
vn 0.4518 -0.0032 -0.8921
vn 0.4588 0.0030 -0.8885
vn 0.4717 0.0141 -0.8816
vn 0.2811 -0.4115 -0.8670
vn 0.2764 -0.4145 -0.8670
vn 0.2718 -0.4174 -0.8671
vn -0.8435 -0.4540 -0.2869
vn -0.8435 -0.4540 0.2869
vn -0.9493 -0.0614 -0.3084
vn -0.9493 -0.0614 0.3084
vn -0.8328 0.4436 -0.3311
vn -0.8328 0.4436 0.3311
vn 0.8435 -0.4540 -0.2869
vn 0.8435 -0.4540 0.2869
vn 0.9493 -0.0614 -0.3084
vn 0.9493 -0.0614 0.3084
vn 0.8328 0.4436 -0.3311
vn 0.8328 0.4436 0.3311
vn -0.3609 -0.8912 -0.2747
vn -0.3609 -0.8912 0.2747
vn 0.3609 -0.8912 -0.2747
vn 0.3609 -0.8912 0.2747
vn 0.6649 0.7418 -0.0875
vn 0.6698 0.7360 -0.0979
vn 0.6804 0.7225 -0.1228
vn 0.6648 0.7304 0.1571
vn 0.6602 0.7366 0.1466
vn 0.6745 0.7159 0.1803
vn -0.6647 0.7304 -0.1571
vn -0.6602 0.7366 -0.1466
vn -0.6745 0.7159 -0.1803
vn -0.6649 0.7418 0.0875
vn -0.6698 0.7360 0.0979
vn -0.6804 0.7225 0.1228
vn -0.6879 -0.6744 -0.2682
vn -0.6879 -0.6744 0.2682
vn -0.5393 -0.7989 -0.2664
vn -0.5393 -0.7989 0.2664
vn -0.5478 0.7607 -0.3482
vn -0.5491 0.7603 -0.3469
vn -0.5600 0.7571 -0.3365
vn -0.5538 0.7669 0.3243
vn -0.5526 0.7673 0.3255
vn -0.5646 0.7635 0.3135
vn 0.0705 0.9608 -0.2681
vn 0.0723 0.9601 -0.2703
vn 0.0755 0.9587 -0.2742
vn 0.0720 0.9569 0.2814
vn 0.0702 0.9577 0.2792
vn 0.0752 0.9555 0.2853
vn 0.5393 -0.7989 -0.2664
vn 0.5393 -0.7989 0.2664
vn 0.6879 -0.6744 -0.2682
vn 0.6879 -0.6744 0.2682
vn -0.0720 0.9569 -0.2814
vn -0.0702 0.9577 -0.2792
vn -0.0752 0.9555 -0.2853
vn -0.0705 0.9608 0.2681
vn -0.0723 0.9601 0.2703
vn -0.0755 0.9587 0.2742
vn 0.5538 0.7669 -0.3243
vn 0.5526 0.7673 -0.3255
vn 0.5647 0.7635 -0.3135
vn 0.5478 0.7607 0.3482
vn 0.5491 0.7603 0.3469
vn 0.5600 0.7571 0.3365
vn -0.4314 -0.4229 -0.7969
vn -0.5376 -0.2894 -0.7920
vn -0.4310 0.2296 -0.8727
vn -0.2396 0.3500 -0.9056
vn -0.4310 0.2296 0.8727
vn -0.2396 0.3500 0.9056
vn -0.5376 -0.2894 0.7920
vn -0.4314 -0.4230 0.7969
vn 0.0293 0.4080 -0.9125
vn -0.0400 0.3375 -0.9405
vn 0.5376 -0.2894 -0.7920
vn 0.4314 -0.4229 -0.7969
vn 0.0400 0.3375 -0.9405
vn -0.0293 0.4080 -0.9125
vn 0.4310 0.2296 -0.8727
vn 0.2396 0.3500 -0.9056
vn -0.0400 0.3375 0.9405
vn 0.0293 0.4080 0.9125
vn 0.4310 0.2296 0.8727
vn 0.2396 0.3500 0.9056
vn -0.0293 0.4080 0.9125
vn 0.0400 0.3375 0.9405
vn 0.4314 -0.4230 0.7969
vn 0.5376 -0.2894 0.7920
vn -0.0418 -0.3844 0.9222
vn 0.1139 -0.3824 0.9169
vn -0.1139 -0.3824 -0.9169
vn 0.0418 -0.3844 -0.9222
vn -0.2853 -0.4088 0.8669
vn -0.4383 -0.0155 0.8987
vn -0.1446 0.3796 0.9138
vn -0.0267 0.3731 -0.9274
vn -0.4729 -0.0155 -0.8810
vn -0.2646 -0.4066 -0.8744
vn 0.2646 -0.4066 0.8744
vn 0.4729 -0.0155 0.8810
vn 0.0267 0.3731 0.9274
vn 0.1446 0.3796 -0.9138
vn 0.4383 -0.0155 -0.8987
vn 0.2853 -0.4088 -0.8669
vn 0.6543 0.7533 -0.0670
vn 0.6505 0.7492 0.1251
vn -0.6505 0.7492 -0.1251
vn -0.6543 0.7533 0.0670
vn -0.5362 0.7637 -0.3594
vn -0.5412 0.7706 0.3366
vn 0.0670 0.9622 -0.2639
vn 0.0668 0.9591 0.2751
vn -0.0668 0.9591 -0.2751
vn -0.0670 0.9622 0.2639
vn 0.5412 0.7706 -0.3366
vn 0.5363 0.7637 0.3594
s 1
f 35//1 10//2 34//3
f 18//4 35//5 34//6
f 36//7 11//7 35//7
f 19//8 36//8 35//8
f 16//9 39//9 40//9
f 39//10 24//10 40//10
f 9//11 40//12 33//13
f 40//14 17//15 33//16
f 42//17 11//18 43//19
f 44//20 3//21 43//22
f 43//23 12//23 44//23
f 44//24 13//25 45//26
f 14//27 47//28 46//29
f 8//30 47//31 48//32
f 15//33 48//33 47//33
f 16//34 41//35 48//36
f 19//37 50//38 51//39
f 20//40 51//40 52//40
f 27//41 52//42 51//43
f 21//44 52//45 53//46
f 55//47 22//48 54//49
f 56//50 23//50 55//50
f 55//51 32//52 56//53
f 49//54 24//55 56//56
f 8//57 57//57 58//57
f 57//58 3//58 58//58
f 7//59 58//59 59//59
f 58//60 4//60 59//60
f 6//61 59//61 60//61
f 59//62 5//62 60//62
f 62//63 32//63 61//63
f 27//64 62//64 61//64
f 61//65 31//65 63//65
f 28//66 61//66 63//66
f 63//67 30//67 64//67
f 29//68 63//68 64//68
f 66//69 33//69 65//69
f 34//70 66//70 65//70
f 33//71 67//71 65//71
f 67//72 34//72 65//72
f 69//73 14//74 68//75
f 13//76 69//77 68//78
f 22//79 69//80 70//81
f 69//82 21//83 70//84
f 1//85 71//85 57//85
f 71//86 2//86 57//86
f 71//87 9//87 66//87
f 10//88 71//88 66//88
f 72//89 6//90 60//91
f 5//92 72//93 60//94
f 68//95 46//96 72//97
f 45//98 68//99 72//100
f 17//101 73//101 67//101
f 73//102 18//102 67//102
f 73//103 25//103 62//103
f 26//104 73//104 62//104
f 54//105 70//106 74//107
f 70//108 53//109 74//110
f 30//111 74//112 64//113
f 74//114 29//115 64//116
f 41//117 1//117 48//117
f 8//118 48//118 1//118
f 7//119 6//119 47//119
f 46//120 47//120 6//120
f 4//121 44//121 5//121
f 45//122 5//122 44//122
f 3//123 2//123 43//123
f 42//124 43//124 2//124
f 22//125 23//125 38//125
f 39//126 38//126 23//126
f 32//127 25//127 56//127
f 49//128 56//128 25//128
f 39//129 15//129 38//129
f 14//130 38//130 15//130
f 31//131 55//131 30//131
f 54//132 30//132 55//132
f 36//133 20//133 37//133
f 21//134 37//134 20//134
f 28//135 29//135 52//135
f 53//136 52//136 29//136
f 13//137 12//137 37//137
f 36//138 37//138 12//138
f 50//139 26//139 51//139
f 27//140 51//140 26//140
f 35//1 11//141 10//2
f 18//4 19//142 35//5
f 36//7 12//7 11//7
f 19//8 20//8 36//8
f 16//9 15//9 39//9
f 39//10 23//10 24//10
f 9//11 16//143 40//12
f 40//14 24//144 17//15
f 42//17 10//145 11//18
f 44//20 4//146 3//21
f 43//23 11//23 12//23
f 44//24 12//147 13//25
f 14//27 15//148 47//28
f 8//30 7//149 47//31
f 15//33 16//33 48//33
f 16//34 9//150 41//35
f 19//37 18//151 50//38
f 20//40 19//40 51//40
f 27//41 28//152 52//42
f 21//44 20//153 52//45
f 55//47 23//154 22//48
f 56//50 24//50 23//50
f 55//51 31//155 32//52
f 49//54 17//156 24//55
f 8//57 1//57 57//57
f 57//58 2//58 3//58
f 7//59 8//59 58//59
f 58//60 3//60 4//60
f 6//61 7//61 59//61
f 59//62 4//62 5//62
f 62//63 25//63 32//63
f 27//64 26//64 62//64
f 61//65 32//65 31//65
f 28//66 27//66 61//66
f 63//67 31//67 30//67
f 29//68 28//68 63//68
f 66//69 9//69 33//69
f 34//70 10//70 66//70
f 33//71 17//71 67//71
f 67//72 18//72 34//72
f 69//73 38//157 14//74
f 13//76 37//158 69//77
f 22//79 38//159 69//80
f 69//82 37//160 21//83
f 1//85 41//85 71//85
f 71//86 42//86 2//86
f 71//87 41//87 9//87
f 10//88 42//88 71//88
f 72//89 46//161 6//90
f 5//92 45//162 72//93
f 68//95 14//163 46//96
f 45//98 13//164 68//99
f 17//101 49//101 73//101
f 73//102 50//102 18//102
f 73//103 49//103 25//103
f 26//104 50//104 73//104
f 54//105 22//165 70//106
f 70//108 21//166 53//109
f 30//111 54//167 74//112
f 74//114 53//168 29//115
