# Blender 4.2.2 LTS
# www.blender.org
o Plano
v -0.688079 0.002856 0.159500
v -0.106198 -1.636033 0.159500
v -0.688079 0.002856 -0.162496
v -0.021412 0.002856 0.159500
v 0.788761 0.002856 0.159500
v 0.788761 0.002856 -0.162496
v -0.021412 0.002856 -0.162496
v -0.267130 1.156452 -0.162496
v -0.267130 1.156452 0.159500
v 0.399537 1.156452 -0.162496
v 0.399537 1.156452 0.159500
v -0.791262 -0.293156 -0.162496
v -0.791262 -0.293156 0.159500
v -0.021412 -0.258106 -0.162496
v -0.021412 -0.293156 0.159500
v 0.645254 -0.293156 0.159500
v 0.645254 -0.255228 -0.162496
v -0.106198 -1.482610 -0.162496
vn -0.0000 -1.0000 -0.0000
vn -0.0000 -0.0000 -1.0000
vn -0.8986 0.4357 0.0513
vn -0.0000 1.0000 -0.0000
vn 0.9394 -0.3428 -0.0000
vn -0.0000 -0.0000 1.0000
vn -0.9394 0.3428 -0.0000
vn -0.9443 0.3292 -0.0000
vn 0.9976 -0.0691 -0.0075
vn -0.8500 0.4756 0.2266
vn -0.8740 0.4860 -0.0000
vn 0.0452 -0.9931 -0.1081
vn 0.9976 -0.0630 -0.0300
vn -0.8512 0.5212 0.0614
s 0
f 7//1 5//1 4//1
f 7//2 8//2 10//2
f 5//3 17//3 16//3
f 11//4 8//4 9//4
f 7//5 11//5 4//5
f 4//6 9//6 1//6
f 1//7 8//7 3//7
f 3//8 13//8 1//8
f 17//6 14//6 18//6
f 12//1 15//1 13//1
f 7//6 17//6 6//6
f 4//2 16//2 15//2
f 3//2 14//2 12//2
f 1//6 15//6 4//6
f 15//9 18//9 14//9
f 15//2 16//2 2//2
f 16//10 18//10 2//10
f 7//1 6//1 5//1
f 7//2 3//2 8//2
f 5//11 6//11 17//11
f 11//4 10//4 8//4
f 7//5 10//5 11//5
f 4//6 11//6 9//6
f 1//7 9//7 8//7
f 3//8 12//8 13//8
f 12//12 14//12 15//12
f 7//6 14//6 17//6
f 4//2 5//2 16//2
f 3//2 7//2 14//2
f 1//6 13//6 15//6
f 15//13 2//13 18//13
f 16//14 17//14 18//14
