# Blender 4.2.2 LTS
# www.blender.org
o Plano
v 0.118645 -0.999467 1.249186
v 0.118645 1.000533 1.249185
v 0.118645 -0.999467 0.657896
v 0.118645 1.000533 0.657896
v 0.118645 0.000533 2.108499
v 0.118645 0.000533 1.517209
v -0.134286 -0.999467 0.657896
v -0.134286 -0.999467 1.249186
v -0.134286 0.000533 2.108499
v -0.134286 1.000533 1.249185
v -0.134286 1.000533 0.657896
v -0.134286 0.000533 1.517209
v 0.118645 -0.999468 0.023197
v 0.118645 1.000533 0.023197
v 0.118645 -0.999468 -0.568093
v 0.118645 1.000533 -0.568093
v 0.118645 0.000533 0.882510
v 0.118645 0.000533 0.291220
v -0.134286 -0.999468 -0.568093
v -0.134286 -0.999468 0.023197
v -0.134286 0.000533 0.882510
v -0.134286 1.000533 0.023197
v -0.134286 1.000533 -0.568093
v -0.134286 0.000533 0.291220
v 0.118645 -0.999468 -1.271361
v 0.118645 1.000532 -1.271362
v 0.118645 -0.999468 -1.862651
v 0.118645 1.000532 -1.862651
v 0.118645 0.000532 -0.412047
v 0.118645 0.000532 -1.003338
v -0.134286 -0.999468 -1.862651
v -0.134286 -0.999468 -1.271361
v -0.134286 0.000532 -0.412047
v -0.134286 1.000532 -1.271362
v -0.134286 1.000532 -1.862651
v -0.134286 0.000532 -1.003338
vn 1.0000 -0.0000 -0.0000
vn -1.0000 -0.0000 -0.0000
vn -0.0000 -0.6517 0.7584
vn -0.0000 1.0000 -0.0000
vn -0.0000 -1.0000 -0.0000
vn -0.0000 -0.6517 -0.7584
vn -0.0000 0.6517 -0.7584
vn -0.0000 0.6517 0.7584
s 0
f 6//1 2//1 5//1
f 1//1 6//1 5//1
f 10//2 12//2 9//2
f 8//2 12//2 7//2
f 5//3 8//3 1//3
f 4//4 10//4 2//4
f 1//5 7//5 3//5
f 6//6 11//6 4//6
f 3//7 12//7 6//7
f 2//8 9//8 5//8
f 18//1 14//1 17//1
f 13//1 18//1 17//1
f 22//2 24//2 21//2
f 20//2 24//2 19//2
f 17//3 20//3 13//3
f 16//4 22//4 14//4
f 13//5 19//5 15//5
f 18//6 23//6 16//6
f 15//7 24//7 18//7
f 14//8 21//8 17//8
f 30//1 26//1 29//1
f 25//1 30//1 29//1
f 34//2 36//2 33//2
f 32//2 36//2 31//2
f 29//3 32//3 25//3
f 28//4 34//4 26//4
f 25//5 31//5 27//5
f 30//6 35//6 28//6
f 27//7 36//7 30//7
f 26//8 33//8 29//8
f 6//1 4//1 2//1
f 1//1 3//1 6//1
f 10//2 11//2 12//2
f 8//2 9//2 12//2
f 5//3 9//3 8//3
f 4//4 11//4 10//4
f 1//5 8//5 7//5
f 6//6 12//6 11//6
f 3//7 7//7 12//7
f 2//8 10//8 9//8
f 18//1 16//1 14//1
f 13//1 15//1 18//1
f 22//2 23//2 24//2
f 20//2 21//2 24//2
f 17//3 21//3 20//3
f 16//4 23//4 22//4
f 13//5 20//5 19//5
f 18//6 24//6 23//6
f 15//7 19//7 24//7
f 14//8 22//8 21//8
f 30//1 28//1 26//1
f 25//1 27//1 30//1
f 34//2 35//2 36//2
f 32//2 33//2 36//2
f 29//3 33//3 32//3
f 28//4 35//4 34//4
f 25//5 32//5 31//5
f 30//6 36//6 35//6
f 27//7 31//7 36//7
f 26//8 34//8 33//8
